<svg width="12" height="12" viewBox="0 0 12 12" fill="none" xmlns="http://www.w3.org/2000/svg">
<g clip-path="url(#clip0_10_489)">
<path d="M11.25 1.71429V2.78571C11.25 3.72991 8.89845 4.5 6 4.5C3.10155 4.5 0.75 3.72991 0.75 2.78571V1.71429C0.75 0.770086 3.10155 0 6 0C8.89845 0 11.25 0.770086 11.25 1.71429ZM11.25 4.125V6.53571C11.25 7.47991 8.89845 8.25 6 8.25C3.10155 8.25 0.75 7.47991 0.75 6.53571V4.125C1.87793 4.90179 3.94238 5.26341 6 5.26341C8.05762 5.26341 10.122 4.90179 11.25 4.125ZM11.25 7.875V10.2857C11.25 11.2299 8.89845 12 6 12C3.10155 12 0.75 11.2299 0.75 10.2857V7.875C1.87793 8.65179 3.94238 9.01341 6 9.01341C8.05762 9.01341 10.122 8.65179 11.25 7.875Z" fill="white"/>
</g>
<defs>
<clipPath id="clip0_10_489">
<rect width="12" height="12" fill="white"/>
</clipPath>
</defs>
</svg>
