<svg width="8" height="8" viewBox="0 0 8 8" fill="none" xmlns="http://www.w3.org/2000/svg">
<g clip-path="url(#clip0_4_254)">
<path d="M3.69169 7.83859C1.42141 4.54736 1 4.20958 1 3C1 1.34314 2.34314 0 4 0C5.65686 0 7 1.34314 7 3C7 4.20958 6.57859 4.54736 4.30831 7.83859C4.15933 8.05381 3.84066 8.0538 3.69169 7.83859ZM4 4.25C4.69036 4.25 5.25 3.69036 5.25 3C5.25 2.30964 4.69036 1.75 4 1.75C3.30964 1.75 2.75 2.30964 2.75 3C2.75 3.69036 3.30964 4.25 4 4.25Z" fill="white"/>
</g>
<defs>
<clipPath id="clip0_4_254">
<rect width="8" height="8" fill="white"/>
</clipPath>
</defs>
</svg>
