<svg width="12" height="12" viewBox="0 0 12 12" fill="none" xmlns="http://www.w3.org/2000/svg">
<g clip-path="url(#clip0_10_497)">
<path d="M9.80156 4.15312C9.675 4.11093 9.54844 4.07109 9.42188 4.03359C9.44297 3.94687 9.46172 3.86015 9.48047 3.77343C9.76875 2.37656 9.57891 1.2539 8.93906 0.883591C8.32266 0.529684 7.31719 0.897653 6.3 1.78359C6.19922 1.87031 6.10078 1.96172 6.00703 2.05312C5.94375 1.99218 5.87812 1.93125 5.8125 1.87265C4.74609 0.925778 3.67734 0.527341 3.0375 0.899997C2.42344 1.25625 2.24062 2.31328 2.49844 3.63515C2.52422 3.7664 2.55234 3.89531 2.58516 4.02656C2.43516 4.06875 2.2875 4.11562 2.14922 4.16484C0.897656 4.59843 0 5.28281 0 5.99062C0 6.72187 0.95625 7.45547 2.25703 7.90078C2.3625 7.93593 2.46797 7.97109 2.57578 8.00156C2.54063 8.14218 2.51016 8.28047 2.48203 8.42343C2.23594 9.72422 2.42813 10.7555 3.04219 11.1094C3.675 11.475 4.73906 11.1 5.775 10.193C5.85703 10.1203 5.93906 10.0453 6.02109 9.96562C6.12422 10.0664 6.23203 10.1625 6.33984 10.2562C7.34297 11.1187 8.33438 11.468 8.94609 11.1141C9.57891 10.7484 9.78516 9.63984 9.51797 8.28984C9.49688 8.18672 9.47344 8.08125 9.44766 7.97343C9.52266 7.95234 9.59531 7.9289 9.66797 7.90547C11.0203 7.45781 12 6.73359 12 5.99062C12 5.28047 11.0766 4.5914 9.80156 4.15312V4.15312ZM6.63047 2.16328C7.50234 1.4039 8.31563 1.10625 8.68594 1.31953C9.08203 1.54687 9.23437 2.46562 8.98594 3.67265C8.96953 3.75234 8.95313 3.82968 8.93203 3.90703C8.41172 3.78984 7.88437 3.70547 7.35469 3.65859C7.05 3.22265 6.71719 2.80547 6.35625 2.41406C6.44766 2.32734 6.53672 2.24531 6.63047 2.16328V2.16328ZM3.91875 7.20703C4.03828 7.41093 4.16016 7.61484 4.28906 7.81406C3.92344 7.77422 3.56016 7.71562 3.20156 7.63828C3.30469 7.30078 3.43359 6.95156 3.58359 6.59531C3.69141 6.80156 3.80156 7.00547 3.91875 7.20703V7.20703ZM3.20859 4.3875C3.54609 4.3125 3.90469 4.25156 4.27734 4.20468C4.15312 4.39922 4.03125 4.59843 3.91641 4.8C3.80156 4.99922 3.68906 5.20312 3.58359 5.40937C3.43594 5.06015 3.31172 4.71797 3.20859 4.3875ZM3.85078 6.00234C4.00547 5.6789 4.17422 5.3625 4.35234 5.05078C4.53047 4.73906 4.72266 4.43672 4.92422 4.13906C5.27578 4.11328 5.63437 4.09922 6 4.09922C6.36563 4.09922 6.72656 4.11328 7.07578 4.13906C7.275 4.43437 7.46484 4.73672 7.64531 5.04609C7.82578 5.35547 7.99453 5.67187 8.15391 5.99297C7.99687 6.3164 7.82812 6.63515 7.64766 6.94922C7.46953 7.26093 7.27969 7.56328 7.08047 7.86328C6.73125 7.88906 6.36797 7.90078 6 7.90078C5.63203 7.90078 5.27578 7.88906 4.93125 7.86797C4.72734 7.57031 4.53516 7.26562 4.35469 6.9539C4.17422 6.64218 4.00781 6.32578 3.85078 6.00234ZM8.08359 7.20234C8.20312 6.99609 8.31563 6.7875 8.42578 6.57656C8.57578 6.9164 8.70703 7.26093 8.82187 7.61484C8.45859 7.69687 8.09062 7.76015 7.72031 7.80234C7.84687 7.60547 7.96641 7.4039 8.08359 7.20234ZM8.42109 5.40937C8.31094 5.20312 8.19844 4.99687 8.08125 4.79531C7.96641 4.59609 7.84688 4.39922 7.72266 4.20468C8.1 4.25156 8.46094 4.31484 8.79844 4.39218C8.69062 4.73906 8.56406 5.07656 8.42109 5.40937V5.40937ZM6.00469 2.77265C6.25078 3.03984 6.48281 3.32109 6.69844 3.61172C6.23437 3.59062 5.76797 3.59062 5.30391 3.61172C5.53359 3.30937 5.77031 3.02812 6.00469 2.77265ZM3.28594 1.33593C3.67969 1.10625 4.55391 1.43437 5.475 2.25C5.53359 2.30156 5.59219 2.35781 5.65312 2.41406C5.28984 2.80547 4.95469 3.22265 4.64766 3.65859C4.11797 3.70547 3.59297 3.7875 3.07266 3.90234C3.04219 3.78281 3.01641 3.66093 2.99062 3.53906C2.77031 2.40468 2.91562 1.54922 3.28594 1.33593V1.33593ZM2.71172 7.51406C2.61328 7.48593 2.51719 7.45547 2.42109 7.42265C1.92188 7.26562 1.35469 7.01718 0.944531 6.6914C0.707812 6.52734 0.548437 6.27422 0.503906 5.99062C0.503906 5.56172 1.24453 5.01328 2.31328 4.64062C2.44687 4.59375 2.58281 4.55156 2.71875 4.51172C2.87813 5.02031 3.07031 5.51953 3.29297 6.00234C3.06797 6.49218 2.87344 6.99843 2.71172 7.51406V7.51406ZM5.44453 9.81093C5.05781 10.1648 4.61016 10.4461 4.12266 10.6383C3.8625 10.7625 3.5625 10.7742 3.29531 10.6687C2.92266 10.4531 2.76797 9.62578 2.97891 8.5125C3.00469 8.38125 3.03281 8.25 3.06563 8.12109C3.59063 8.23359 4.12031 8.31093 4.65703 8.35078C4.96641 8.78906 5.30625 9.20859 5.66953 9.60234C5.59453 9.675 5.51953 9.74531 5.44453 9.81093ZM6.01875 9.2414C5.77969 8.98359 5.54062 8.69765 5.30859 8.39062C5.53359 8.4 5.76562 8.40468 6 8.40468C6.24141 8.40468 6.47812 8.4 6.7125 8.38828C6.49687 8.68593 6.26484 8.96953 6.01875 9.2414V9.2414ZM9.08203 9.94453C9.06094 10.2305 8.92031 10.4977 8.69531 10.6781C8.32266 10.8937 7.52813 10.6125 6.67031 9.87656C6.57188 9.79218 6.47344 9.70078 6.37266 9.60703C6.73125 9.21093 7.06172 8.7914 7.36172 8.35078C7.89844 8.30625 8.43281 8.22422 8.96016 8.10468C8.98359 8.20078 9.00469 8.29687 9.02344 8.39062C9.13828 8.89687 9.15703 9.42422 9.08203 9.94453V9.94453ZM9.50859 7.425C9.44297 7.44609 9.37734 7.46718 9.30938 7.48593C9.14531 6.975 8.94375 6.47578 8.71172 5.99062C8.93672 5.5125 9.12656 5.02031 9.28594 4.5164C9.40781 4.55156 9.525 4.58906 9.6375 4.62656C10.7297 5.00156 11.4961 5.55937 11.4961 5.98593C11.4961 6.44531 10.6781 7.03828 9.50859 7.425ZM6 7.07343C6.59297 7.07343 7.07344 6.59297 7.07344 6C7.07344 5.40703 6.59297 4.92656 6 4.92656C5.40703 4.92656 4.92656 5.40703 4.92656 6C4.92656 6.59297 5.40703 7.07343 6 7.07343Z" fill="white"/>
</g>
<defs>
<clipPath id="clip0_10_497">
<rect width="12" height="12" fill="white"/>
</clipPath>
</defs>
</svg>
