<svg width="16" height="16" viewBox="0 0 16 16" fill="none" xmlns="http://www.w3.org/2000/svg">
<g clip-path="url(#clip0_10_557)">
<path d="M8 16C12.4187 16 16 12.4187 16 8C16 3.58125 12.4187 0 8 0C3.58125 0 0 3.58125 0 8C0 12.4187 3.58125 16 8 16ZM4 6C4 5.44687 4.44687 5 5 5H11C11.5531 5 12 5.44687 12 6V6.29063L8.27188 7.9875C8.1875 8.025 8.09375 8.04688 8 8.04688C7.90625 8.04688 7.81563 8.02813 7.72813 7.9875L4 6.29063V6ZM8.68437 8.89688L12 7.39062V10C12 10.5531 11.5531 11 11 11H5C4.44687 11 4 10.5531 4 10V7.39062L7.31563 8.9C7.53125 8.99687 7.7625 9.05 8 9.05C8.2375 9.05 8.46875 9 8.68437 8.9V8.89688Z" fill="white"/>
</g>
<defs>
<clipPath id="clip0_10_557">
<rect width="16" height="16" fill="white"/>
</clipPath>
</defs>
</svg>
