<svg width="512" height="512" viewBox="0 0 512 512" fill="none" xmlns="http://www.w3.org/2000/svg">
<g clip-path="url(#clip0_44_821)">
<path d="M256 512C397.4 512 512 397.4 512 256C512 114.6 397.4 0 256 0C114.6 0 0 114.6 0 256C0 397.4 114.6 512 256 512ZM186.7 128.7C196.4 126.1 206.6 131 210.4 140.3L230.4 188.3C233.8 196.5 231.4 205.9 224.6 211.5L200 231.7C216.6 266.9 245.1 295.4 280.3 312L300.5 287.3C306.1 280.5 315.5 278.1 323.7 281.5L371.7 301.5C381 305.4 385.9 315.5 383.3 325.2L371.3 369.2C368.9 378 361 384 352 384C228.3 384 128 283.7 128 160C128 151 134 143.1 142.7 140.7L186.7 128.7Z" fill="white"/>
</g>
<defs>
<clipPath id="clip0_44_821">
<rect width="512" height="512" fill="white"/>
</clipPath>
</defs>
</svg>
