<svg width="12" height="12" viewBox="0 0 12 12" fill="none" xmlns="http://www.w3.org/2000/svg">
<g clip-path="url(#clip0_10_479)">
<path d="M10.125 0.75H1.875C1.25391 0.75 0.75 1.25391 0.75 1.875V10.125C0.75 10.7461 1.25391 11.25 1.875 11.25H10.125C10.7461 11.25 11.25 10.7461 11.25 10.125V1.875C11.25 1.25391 10.7461 0.75 10.125 0.75ZM6.46406 8.93906C6.46406 9.96094 5.86406 10.4273 4.98984 10.4273C4.2 10.4273 3.74297 10.0195 3.50859 9.525L4.3125 9.03984C4.46719 9.31406 4.60781 9.54609 4.94766 9.54609C5.27109 9.54609 5.47734 9.41953 5.47734 8.925V5.57109H6.46406V8.93906V8.93906ZM8.79844 10.4273C7.88203 10.4273 7.28906 9.99141 7.00078 9.41953L7.80469 8.95547C8.01562 9.3 8.29219 9.55547 8.77734 9.55547C9.18516 9.55547 9.44766 9.35156 9.44766 9.06797C9.44766 8.73047 9.18047 8.61094 8.72812 8.41172L8.48203 8.30625C7.76953 8.00391 7.29844 7.62187 7.29844 6.81797C7.29844 6.07734 7.86328 5.51484 8.74219 5.51484C9.37031 5.51484 9.82031 5.73281 10.1437 6.30469L9.375 6.79688C9.20625 6.49453 9.02344 6.375 8.73984 6.375C8.45156 6.375 8.26875 6.55781 8.26875 6.79688C8.26875 7.09219 8.45156 7.21172 8.87578 7.39688L9.12188 7.50234C9.96094 7.86094 10.432 8.22891 10.432 9.05391C10.432 9.93984 9.73359 10.4273 8.79844 10.4273V10.4273Z" fill="white"/>
</g>
<defs>
<clipPath id="clip0_10_479">
<rect width="12" height="12" fill="white"/>
</clipPath>
</defs>
</svg>
