<svg width="12" height="12" viewBox="0 0 12 12" fill="none" xmlns="http://www.w3.org/2000/svg">
<g clip-path="url(#clip0_10_441)">
<path d="M11.0578 4.69922C10.8773 3.975 10.5352 3.42891 9.80625 3.42891H8.86641V4.53984C8.86641 5.40234 8.13516 6.12891 7.30078 6.12891H4.79766C4.11328 6.12891 3.5461 6.71484 3.5461 7.40156V9.7875C3.5461 10.4672 4.13672 10.8656 4.79766 11.0602C5.58985 11.2922 6.35157 11.3344 7.30078 11.0602C7.93125 10.8773 8.55235 10.5094 8.55235 9.7875V8.83359H6.05156V8.51484H9.80625C10.5352 8.51484 10.8047 8.00625 11.0578 7.24453C11.3203 6.45937 11.3086 5.70469 11.0578 4.69922V4.69922ZM7.45782 9.46875C7.71797 9.46875 7.92891 9.68203 7.92891 9.94453C7.92891 10.2094 7.71797 10.4227 7.45782 10.4227C7.2 10.4227 6.98672 10.207 6.98672 9.94453C6.98907 9.67969 7.2 9.46875 7.45782 9.46875ZM4.68281 5.81484H7.18594C7.88203 5.81484 8.4375 5.24062 8.4375 4.54219V2.15391C8.4375 1.47422 7.86563 0.965625 7.18594 0.850781C6.34688 0.7125 5.43516 0.719531 4.68281 0.853125C3.62344 1.04062 3.43125 1.43203 3.43125 2.15625V3.11016H5.93672V3.42891H2.49141C1.7625 3.42891 1.125 3.86719 0.925784 4.69922C0.696096 5.65312 0.686721 6.24844 0.925784 7.24453C1.10391 7.98516 1.52813 8.51484 2.25703 8.51484H3.11719V7.37109C3.11719 6.54375 3.83203 5.81484 4.68281 5.81484ZM4.52578 2.47266C4.26563 2.47266 4.05469 2.25937 4.05469 1.99687C4.05703 1.73203 4.26563 1.51875 4.52578 1.51875C4.7836 1.51875 4.99688 1.73437 4.99688 1.99687C4.99688 2.25937 4.78594 2.47266 4.52578 2.47266V2.47266Z" fill="white"/>
</g>
<defs>
<clipPath id="clip0_10_441">
<rect width="12" height="12" fill="white"/>
</clipPath>
</defs>
</svg>
